<?xml version="1.0" encoding="utf-8"?>
<!-- Generator: Adobe Illustrator 24.3.0, SVG Export Plug-In . SVG Version: 6.00 Build 0)  -->
<svg version="1.1" id="Layer_1" xmlns="http://www.w3.org/2000/svg" xmlns:xlink="http://www.w3.org/1999/xlink" x="0px" y="0px"
	 viewBox="0 0 882 204" style="enable-background:new 0 0 882 204;" xml:space="preserve">
<style type="text/css">
	.st0{fill:#253D81;}
</style>
<path class="st0" d="M42,167h50c0-9.2,0.8-16.1-10-18V46c2.6,0,5.5-0.3,8,0.4c10.7,3.1,3.8,18.6,9.9,24.7c2.8,2.8,14.6,3.5,16.5-0.5
	c2.2-4.5,0.6-12.8,0.6-17.7V34c0-2.2,0.5-5.6-1-7.4c-2.2-2.5-10.8,0.3-14,0.4c-15,0.1-30,0-45,0c-9.5,0-19.5,0.8-29-0.2
	c-2.7-0.3-7.8-2.7-10-0.2c-1.8,2.2-1,6.8-1,9.4v26c0,3-1,8.7,2.3,10.4C21,73.2,23.2,73,25,73c3.5,0,7.7,0.2,9.8-3.2
	C39,63,34.6,42.6,48.9,46.3c3.7,1,4,4.4,4.1,7.7c0.1,7.3,0,14.7,0,22v45c0,7.4,1.1,15.8-0.2,23c-1.1,5.9-7,5.1-9.7,9.4
	C40.8,156.8,42,163.1,42,167"/>
<g>
	<g>
		<g>
			<path class="st0" d="M270.7,112c-1.4-9-4.7-19.6-12.7-24.9c-12.2-7.9-24-2.5-36,1.9V48c0-5.1,1.5-13.1-0.6-17.9
				c-1.2-2.7-3.8-3-6.4-3.1c-6-0.3-12-0.1-18,0c-2.5,0-6.1-0.4-7.4,2.3c-3.8,7.6,3.4,11.2,5.8,16.9c2.2,5.3,0.6,14.1,0.6,19.8v50
				c0,10.2-0.9,21.2,2.5,31c7.4,21,33.3,27.5,52.5,18.2C270.9,155.5,273.8,131.6,270.7,112z M244.1,139.1c-0.8,4.5-2.3,9.6-7.1,11.4
				c-5.9,2.3-11.9-0.4-13.7-6.4c-2.5-8.2-1.3-17.6-1.3-26c0-3.2-0.5-6.9,0.3-10c0.9-3.3,3.6-5.4,6.7-6.4c6.9-2.2,12.6,1.6,14.5,8.4
				C246.1,119,245.7,130,244.1,139.1z"/>
		</g>
	</g>
</g>
<path class="st0" d="M555,149c-6.5,1.1-10.9,3.9-11,11c0,2-0.1,4.6,1.6,6c2.3,1.8,6.7,1,9.4,1h24c3.2,0,7.4,0.6,8.6-3.1
	c1.1-3.5,0.6-8.7-2-11.4c-3.1-3.2-7.6-3.4-8.4-8.5c-1.1-7-0.1-14.9-0.1-22V77c11.4,19.6,18.4,43,26.8,64c2.3,5.7,4.6,11.4,7.1,17
	c1.2,2.8,2.4,6.3,5.3,8c4.8,2.8,14.4,1.1,19.9,1c2.3,0,5.2,0.1,6.4-2.3c1.4-2.9,0.6-7.5,0.6-10.7v-24V45c6.3-1.1,10.8-4.1,10.9-11
	c0-2,0-4.6-1.7-6c-2.2-1.8-6.6-1-9.3-1h-24c-3.1,0-7.6-0.6-8.7,3.1c-1,3.4-0.7,8.7,2,11.2c3.2,3.1,7.7,3.6,8.5,8.7
	c1.1,6.7,0.1,14.2,0.1,21v41c-10.7-18.3-16.9-40.3-24.8-60c-2.6-6.4-5.1-18.9-10.6-23.3c-3.8-3.1-11-1.7-15.6-1.7c-6,0-12,0-18,0
	c-2.2,0-5.4-0.4-7,1.6c-1,1.2-1,2.9-1,4.4c-0.3,8.4,5,8,9.4,13.4c1.5,1.9,1.6,4.3,1.6,6.6C555.6,85,555,117,555,149"/>
<path class="st0" d="M768,27h-43c0,3.9-1.2,10.2,1,13.6c2.6,4,7.9,3.9,8.8,9.4c0.9,5.4,0.1,11.5,0.1,17v34c0,10.7,2,23.6-0.5,34
	c-2.4,9.9-12.9,15.2-22.5,12.2c-8.2-2.6-11.6-10.2-12-18.2c-0.8-17.6,0-35.4,0-53c0-8.3-1.8-19,0.3-27c1.4-5.1,7.1-4.5,9.7-8.4
	c2.2-3.4,1-9.7,1-13.6h-37c-3.3,0-10.6-1.4-13,1.6c-1,1.2-1,2.9-1,4.4c-0.3,8.4,5,8,9.4,13.4c1.7,2.2,1.6,5,1.6,7.6
	c0.2,23.3,0,46.7,0,70c0,13,0.3,26.6,11,35.7c6.5,5.5,14.8,7.5,23,8.5c22.7,2.7,51.3-4.3,52-32.2c0.5-18.3,0-36.7,0-55V59
	c0-3.4-0.7-7.7,0.6-10.9c1.6-3.9,6.2-3.9,8.8-6.8C769.3,38.1,768,31.1,768,27"/>
<path class="st0" d="M775,27c0,3.9-1.2,10.2,1,13.6c3.7,5.8,9.8,3.8,10,12.4c0.4,19.7,0,39.3,0,59c0,10.3,1.5,21.8-0.1,32
	c-1,5.9-6.9,5.2-9.7,9.4c-2.3,3.5-1.2,9.6-1.2,13.6h88v-47c-4.4,0-12-1.5-15.6,1.6c-3.7,3.1-3.7,10.1-5.2,14.4
	c-2.7,8-8.3,10.7-16.2,11.7c-2.6,0.3-6.3,0.8-8.7-0.7c-3.1-2-2.3-6.8-2.3-10v-27V69c0-6.2-1.3-14,0.3-20c1.2-4.3,5.4-4.7,8.2-7.5
	c2.2-2.3,2.5-5.5,2.4-8.5c0-1.5,0-3.2-1-4.4c-2.3-3-9.7-1.6-13-1.6H775"/>
<path class="st0" d="M396,93c0-2.2,0.4-5.4-1.6-7c-2.1-1.6-5.9-1-8.4-1h-22c0,3.9-0.9,9.2,0.6,12.8c1.4,3.2,4.6,4.5,5.2,8.2
	c1.8,11.4,0.2,24.5,0.1,36c0,6.2-3.4,7-5.4,12.1c-1.5,3.7-0.6,8.9-0.6,12.9h40c0-3.8,1-9.2-0.6-12.7c-1.4-3.2-5.4-4.1-6.8-7.4
	c-1.5-3.7-0.6-9-0.6-12.9c0-10.4-4.2-28.8,8-33c0.6,2.1,1.2,4.1,2.7,5.8c12.4,14.9,31.5-11.9,15.3-21.8c-1.8-1.1-3.9-1.7-6-1.9
	c-3.1-0.2-6.2,0.5-9,1.9C402.9,87,399.7,90.4,396,93"/>
<path class="st0" d="M151,158h2c4.1,9.2,12.4,12,22,10.6c3.9-0.6,8.5-1.1,9.7-5.6c2.4-8.9-6.3-10.4-6.7-18c-0.6-14.3,0-28.7,0-43
	c0-4.1,1.5-12.3-1.6-15.4S165.1,85,161,85c-3.7,0-11.3-1.4-14.4,1c-2.7,2.1-2.1,9.2-0.6,11.8c1.6,2.8,4.8,4,5.7,7.3
	c1.1,3.9,0.3,8.9,0.3,12.9c0,7.9,1.8,18.3-0.4,26c-1.1,3.6-4.8,6-8.6,5.8c-8.2-0.5-8-9.8-8-15.7v-33c0-3.8,1.2-10.3-1-13.7
	c-1.5-2.3-4.5-2.3-7-2.3c-5.7-0.1-11.3,0-17,0c-2.5,0-6.1-0.4-7.4,2.3c-4.2,8.5,5.1,12,6.2,18.7c2.8,17.3-5.7,39.5,5.3,54.9
	C122.6,172.9,144.7,171.3,151,158z"/>
<path class="st0" d="M462.1,99c4.4-2.5,10.2-0.5,12.1,4c2.8,6.3,3.4,20.7-3.5,24.7c-4.7,2.7-10-0.2-12.1-4.7
	C455.8,117,455.5,102.8,462.1,99l0.9-16c-19.1,2.5-35,16.1-30.5,37c0.8,3.6,2.2,7,4.3,10c1.7,2.5,4.3,4.8,4.3,8
	c-0.1,6.6-5.5,14.8-7.8,21c-1,2.8-3.1,6.7-1.3,9.6c2.4,3.7,8.4,1.6,12,1.5c9.2-0.4,23.6-2.4,32,2.1c7.5,4,6.2,11.8-1,15.3
	c-6.4,3.1-14.5,1.4-21-0.4c2.8-13.1-14.8-19.1-20.7-7c-6.7,13.7,13,20.7,22.7,22.4c14,2.5,33.3,0.5,43.3-10.7
	c8.5-9.4,9.4-25.7-0.4-34.5c-5.3-4.8-13-6.6-20-7.1c-9-0.6-18,0.2-27,0.9c1.6-3,2.5-5.7,3-9c10,0.8,19.4,1.6,29-2.5
	c15.3-6.5,20.6-25,13.7-39.5c-2.3-4.9-6-8.9-10.7-11.6c-3-1.8-8-2.7-10-5.8c-1.6-2.5-0.5-5.9,0-8.6h3c6.3,12.7,23.9,2.6,18.3-10
	c-4.4-10-18.8-9.6-26.3-3.6c-6.8,5.4-8.8,14-8.9,22.5"/>
<g>
	<g>
		<path class="st0" d="M344.9,92.1c-8.3-8.2-21.7-10.4-32.9-8.7c-22.9,3.6-30,22.9-30,43.6c0,11.1,1.5,22.3,9.2,31
			c8.2,9.3,21.9,12.3,33.8,10.6c23.8-3.4,31-23.1,31-44.6C356,112.5,353.4,100.5,344.9,92.1z M330,139c-0.7,5.5-2.8,11.1-9,11.9
			c-9.1,1.1-12-5-13.1-12.9c-1.3-9.1-1.7-19,0.5-28c1.2-5,4.3-8.8,9.6-9.4c5.5-0.6,9.6,3.5,11.2,8.4
			C332.2,118.4,331.2,129.4,330,139z"/>
	</g>
</g>
</svg>
